# xmcd CD database file
#
# Track frame offsets:
#	150
#	28112
#	60770
#	102959
#	120972
#	153375
#	193706
#	225638
#	257042
#
# Disc length: 4084 seconds
#
# Revision: 0
# Processed by: cddbd v1.5PL3 Copyright (c) Steve Scherf et al.
# Submitted via: CDex 1.50
#
DISCID=670ff209
DTITLE=Philipp van Endert Group - Urban Lyrical
DYEAR=1900
DGENRE=Jazz
TTITLE0=MEMO CRIME
TTITLE1=CASTLE MINWOOD
TTITLE2=MASTERMIND
TTITLE3=BLUE IN GREEN
TTITLE4=MOUSE
TTITLE5=B3
TTITLE6=BLUES FOR BRET
TTITLE7=MEMORY
TTITLE8=TABOO
EXTD=
EXTT0=
EXTT1=
EXTT2=
EXTT3=
EXTT4=
EXTT5=
EXTT6=
EXTT7=
EXTT8=
PLAYORDER=
